<?xml version="1.0" encoding="UTF-8"?>
<svg width="277px" height="250px" viewBox="0 0 277 250" version="1.1" xmlns="http://www.w3.org/2000/svg" xmlns:xlink="http://www.w3.org/1999/xlink">
    <!-- Generator: Sketch 56.3 (81716) - https://sketch.com -->
    <title>Addran College</title>
    <desc>Created with Sketch.</desc>
    <g id="Page-1" stroke="none" stroke-width="1" fill="none" fill-rule="evenodd">
        <g id="Desktop-college-dept-example-2" transform="translate(-68.000000, -1500.000000)" fill-rule="nonzero">
            <g id="Addran-College" transform="translate(68.000000, 1500.000000)">
                <g id="Group" transform="translate(0.000000, 170.000000)" fill="#FFFFFF">
                    <g transform="translate(3.451713, 62.795699)">
                        <path d="M1.9847352,2.83870968 C3.02024922,1.5483871 4.31464174,0.946236559 5.86791277,0.946236559 C7.93894081,0.946236559 9.49221184,1.80645161 10.5277259,3.44086022 C11.0454829,4.38709677 11.3906542,5.33333333 11.3906542,6.27956989 L8.80186916,6.27956989 C8.62928349,5.50537634 8.37040498,4.98924731 8.11152648,4.64516129 C7.59376947,3.95698925 6.90342679,3.61290323 5.95420561,3.61290323 C5.00498442,3.61290323 4.22834891,4.04301075 3.7105919,4.98924731 C3.19283489,5.93548387 2.84766355,7.22580645 2.84766355,8.94623656 C2.84766355,10.6666667 3.10654206,11.9569892 3.7105919,12.8172043 C4.31464174,13.6774194 5.00498442,14.1075269 5.95420561,14.1075269 C6.90342679,14.1075269 7.59376947,13.7634409 8.02523364,12.9892473 C8.28411215,12.5591398 8.54299065,12.0430108 8.71557632,11.1827957 L11.3043614,11.1827957 C11.0454829,12.8172043 10.5277259,14.1935484 9.57850467,15.2258065 C8.62928349,16.2580645 7.4211838,16.7741935 5.95420561,16.7741935 C4.14205607,16.7741935 2.76137072,16.0860215 1.7258567,14.6236559 C0.690342679,13.2473118 0.17258567,11.2688172 0.17258567,8.77419355 C0.17258567,6.3655914 0.776635514,4.30107527 1.9847352,2.83870968 Z" id="Path"></path>
                        <path d="M24.0757009,15.2258065 C23.1264798,16.4301075 21.7457944,17.0322581 19.9336449,17.0322581 C18.1214953,17.0322581 16.74081,16.4301075 15.7915888,15.2258065 C14.4971963,13.7634409 13.8931464,11.6989247 13.8931464,8.94623656 C13.8931464,6.10752688 14.4971963,4.04301075 15.7915888,2.66666667 C16.74081,1.46236559 18.1214953,0.860215054 19.9336449,0.860215054 C21.7457944,0.860215054 23.1264798,1.46236559 24.0757009,2.66666667 C25.3700935,4.04301075 25.9741433,6.19354839 25.9741433,8.94623656 C25.9741433,11.6129032 25.3700935,13.7634409 24.0757009,15.2258065 Z M22.4361371,12.9032258 C23.0401869,11.9569892 23.3853583,10.6666667 23.3853583,8.94623656 C23.3853583,7.22580645 23.0401869,5.93548387 22.4361371,4.98924731 C21.8320872,4.04301075 20.9691589,3.61290323 19.9336449,3.61290323 C18.8981308,3.61290323 18.0352025,4.04301075 17.4311526,4.98924731 C16.8271028,5.93548387 16.4819315,7.22580645 16.4819315,8.94623656 C16.4819315,10.6666667 16.8271028,11.9569892 17.4311526,12.9032258 C18.0352025,13.8494624 18.8981308,14.2795699 19.9336449,14.2795699 C20.9691589,14.2795699 21.8320872,13.7634409 22.4361371,12.9032258 Z" id="Shape"></path>
                        <polygon id="Path" points="28.9943925 1.29032258 31.5831776 1.29032258 31.5831776 13.7634409 37.7962617 13.7634409 37.7962617 16.516129 28.9943925 16.516129"></polygon>
                        <polygon id="Path" points="40.7302181 1.29032258 43.3190031 1.29032258 43.3190031 13.7634409 49.5320872 13.7634409 49.5320872 16.516129 40.7302181 16.516129"></polygon>
                        <polygon id="Path" points="61.7856698 3.95698925 55.1411215 3.95698925 55.1411215 7.22580645 61.2679128 7.22580645 61.2679128 9.89247312 55.1411215 9.89247312 55.1411215 13.8494624 62.1308411 13.8494624 62.1308411 16.6021505 52.6386293 16.6021505 52.6386293 1.37634409 61.8719626 1.37634409 61.8719626 3.95698925"></polygon>
                        <path d="M73.6077882,6.02150538 C73.4352025,4.98924731 72.9174455,4.21505376 72.14081,3.87096774 C71.7093458,3.61290323 71.1915888,3.52688172 70.6738318,3.52688172 C69.6383178,3.52688172 68.8616822,3.95698925 68.1713396,4.90322581 C67.4809969,5.84946237 67.2221184,7.22580645 67.2221184,9.11827957 C67.2221184,11.0107527 67.5672897,12.3010753 68.2576324,13.0752688 C68.9479751,13.8494624 69.7246106,14.2795699 70.6738318,14.2795699 C71.5367601,14.2795699 72.3133956,13.9354839 72.8311526,13.3333333 C73.4352025,12.7311828 73.7803738,11.9569892 73.8666667,10.9247312 L70.9327103,10.9247312 L70.9327103,8.34408602 L76.1965732,8.34408602 L76.1965732,16.516129 L74.4707165,16.516129 L74.211838,14.6236559 C73.694081,15.311828 73.2626168,15.827957 72.8311526,16.172043 C72.14081,16.688172 71.2778816,16.9462366 70.2423676,16.9462366 C68.6028037,16.9462366 67.2221184,16.2580645 66.1866044,14.8817204 C65.0647975,13.5053763 64.5470405,11.5268817 64.5470405,9.11827957 C64.5470405,6.62365591 65.0647975,4.64516129 66.1866044,3.1827957 C67.3084112,1.72043011 68.7753894,0.946236559 70.5875389,0.946236559 C72.2271028,0.946236559 73.4352025,1.46236559 74.4707165,2.40860215 C75.4199377,3.35483871 76.0239875,4.64516129 76.1102804,6.10752688 L73.6077882,6.10752688 L73.6077882,6.02150538 Z" id="Path"></path>
                        <polygon id="Path" points="89.1404984 3.95698925 82.4959502 3.95698925 82.4959502 7.22580645 88.6227414 7.22580645 88.6227414 9.89247312 82.4959502 9.89247312 82.4959502 13.8494624 89.4856698 13.8494624 89.4856698 16.6021505 79.9934579 16.6021505 79.9934579 1.37634409 89.2267913 1.37634409 89.2267913 3.95698925"></polygon>
                        <path d="M108.124922,15.2258065 C107.175701,16.4301075 105.795016,17.0322581 103.982866,17.0322581 C102.170717,17.0322581 100.790031,16.4301075 99.84081,15.2258065 C98.5464174,13.7634409 97.9423676,11.6989247 97.9423676,8.94623656 C97.9423676,6.10752688 98.5464174,4.04301075 99.84081,2.66666667 C100.790031,1.46236559 102.170717,0.860215054 103.982866,0.860215054 C105.795016,0.860215054 107.175701,1.46236559 108.124922,2.66666667 C109.419315,4.04301075 110.023364,6.19354839 110.023364,8.94623656 C110.023364,11.6129032 109.333022,13.7634409 108.124922,15.2258065 Z M106.485358,12.9032258 C107.089408,11.9569892 107.434579,10.6666667 107.434579,8.94623656 C107.434579,7.22580645 107.089408,5.93548387 106.485358,4.98924731 C105.881308,4.04301075 105.01838,3.61290323 103.982866,3.61290323 C102.947352,3.61290323 102.084424,4.04301075 101.480374,4.98924731 C100.876324,5.93548387 100.531153,7.22580645 100.531153,8.94623656 C100.531153,10.6666667 100.876324,11.9569892 101.480374,12.9032258 C102.084424,13.8494624 102.947352,14.2795699 103.982866,14.2795699 C105.01838,14.2795699 105.881308,13.7634409 106.485358,12.9032258 Z" id="Shape"></path>
                        <polygon id="Path" points="113.043614 1.29032258 121.931776 1.29032258 121.931776 3.95698925 115.632399 3.95698925 115.632399 7.48387097 121.15514 7.48387097 121.15514 10.1505376 115.632399 10.1505376 115.632399 16.516129 113.043614 16.516129"></polygon>
                        <polygon id="Path" points="130.733645 1.29032258 133.32243 1.29032258 133.32243 13.7634409 139.535514 13.7634409 139.535514 16.516129 130.733645 16.516129"></polygon>
                        <polygon id="Path" points="144.799377 16.516129 142.210592 16.516129 142.210592 1.29032258 144.799377 1.29032258"></polygon>
                        <path d="M157.743302,2.92473118 C158.088474,3.61290323 158.347352,4.38709677 158.347352,5.24731183 C158.347352,6.19354839 158.174766,6.96774194 157.743302,7.48387097 C157.484424,7.82795699 157.225545,8.08602151 156.794081,8.34408602 C157.398131,8.60215054 157.915888,9.03225806 158.261059,9.72043011 C158.606231,10.3225806 158.778816,11.0967742 158.778816,11.9569892 C158.778816,12.9032258 158.606231,13.6774194 158.261059,14.3655914 C158.002181,14.8817204 157.743302,15.2258065 157.398131,15.5698925 C156.966667,15.9139785 156.535202,16.172043 155.931153,16.344086 C155.413396,16.516129 154.809346,16.516129 154.119003,16.516129 L148.423676,16.516129 L148.423676,1.29032258 L154.550467,1.29032258 C156.017445,1.29032258 157.139252,1.89247312 157.743302,2.92473118 Z M150.926168,3.95698925 L150.926168,7.31182796 L154.03271,7.31182796 C154.550467,7.31182796 155.068224,7.22580645 155.413396,6.96774194 C155.758567,6.70967742 155.931153,6.27956989 155.931153,5.59139785 C155.931153,4.90322581 155.672274,4.38709677 155.24081,4.21505376 C154.895639,4.04301075 154.377882,3.95698925 153.773832,3.95698925 L150.926168,3.95698925 L150.926168,3.95698925 Z M150.926168,9.80645161 L150.926168,13.8494624 L154.03271,13.8494624 C154.550467,13.8494624 154.981931,13.7634409 155.327103,13.5913978 C155.84486,13.2473118 156.190031,12.6451613 156.190031,11.6989247 C156.190031,10.9247312 155.931153,10.3225806 155.413396,10.0645161 C155.154517,9.89247312 154.723053,9.80645161 154.119003,9.80645161 L150.926168,9.80645161 Z" id="Shape"></path>
                        <polygon id="Path" points="171.291277 3.95698925 164.646729 3.95698925 164.646729 7.22580645 170.77352 7.22580645 170.77352 9.89247312 164.646729 9.89247312 164.646729 13.8494624 171.636449 13.8494624 171.636449 16.6021505 162.144237 16.6021505 162.144237 1.37634409 171.37757 1.37634409 171.37757 3.95698925"></polygon>
                        <path d="M182.94081,1.6344086 C183.372274,1.89247312 183.803738,2.23655914 184.14891,2.66666667 C184.407788,3.01075269 184.666667,3.52688172 184.75296,3.95698925 C184.925545,4.38709677 185.011838,4.90322581 185.011838,5.50537634 C185.011838,6.27956989 184.839252,6.96774194 184.580374,7.74193548 C184.321495,8.43010753 183.803738,8.94623656 183.113396,9.20430108 C183.717445,9.46236559 184.14891,9.89247312 184.321495,10.4086022 C184.580374,10.9247312 184.666667,11.6989247 184.666667,12.8172043 L184.666667,13.8494624 C184.666667,14.5376344 184.666667,15.0537634 184.75296,15.2258065 C184.839252,15.655914 185.011838,15.9139785 185.184424,16.0860215 L185.184424,16.4301075 L182.33676,16.4301075 C182.250467,16.0860215 182.250467,15.827957 182.164174,15.5698925 C182.077882,15.1397849 182.077882,14.7096774 182.077882,14.2795699 L182.077882,12.9032258 C182.077882,11.9569892 181.905296,11.2688172 181.646417,10.9247312 C181.387539,10.5806452 180.869782,10.4086022 180.093146,10.4086022 L177.418069,10.4086022 L177.418069,16.4301075 L174.829283,16.4301075 L174.829283,1.20430108 L180.956075,1.20430108 C181.819003,1.29032258 182.509346,1.46236559 182.94081,1.6344086 Z M177.331776,3.95698925 L177.331776,8.08602151 L180.352025,8.08602151 C180.956075,8.08602151 181.387539,8 181.646417,7.82795699 C182.164174,7.56989247 182.423053,6.96774194 182.423053,6.10752688 C182.423053,5.16129032 182.164174,4.55913978 181.646417,4.21505376 C181.387539,4.04301075 180.956075,3.95698925 180.352025,3.95698925 L177.331776,3.95698925 Z" id="Shape"></path>
                        <path d="M191.915265,1.29032258 L194.849221,1.29032258 L199.250156,16.516129 L196.402492,16.516129 L195.539564,13.4193548 L190.879751,13.4193548 L190.016822,16.516129 L187.255452,16.516129 L191.915265,1.29032258 Z M191.742679,10.7526882 L194.935514,10.7526882 L193.382243,4.7311828 L191.742679,10.7526882 Z" id="Shape"></path>
                        <polygon id="Path" points="202.011526 1.29032258 204.600312 1.29032258 204.600312 13.7634409 210.813396 13.7634409 210.813396 16.516129 202.011526 16.516129"></polygon>
                        <path d="M223.239564,1.29032258 L226.17352,1.29032258 L230.660748,16.516129 L227.813084,16.516129 L226.950156,13.4193548 L222.290343,13.4193548 L221.427414,16.516129 L218.666044,16.516129 L223.239564,1.29032258 Z M223.066978,10.7526882 L226.259813,10.7526882 L224.706542,4.7311828 L223.066978,10.7526882 Z" id="Shape"></path>
                        <path d="M241.533645,1.6344086 C242.051402,1.89247312 242.396573,2.23655914 242.741745,2.66666667 C243.000623,3.01075269 243.259502,3.52688172 243.345794,3.95698925 C243.51838,4.38709677 243.604673,4.90322581 243.604673,5.50537634 C243.604673,6.27956989 243.432087,6.96774194 243.173209,7.74193548 C242.91433,8.43010753 242.396573,8.94623656 241.706231,9.20430108 C242.31028,9.46236559 242.741745,9.89247312 242.91433,10.4086022 C243.173209,10.9247312 243.259502,11.6989247 243.259502,12.8172043 L243.259502,13.8494624 C243.259502,14.5376344 243.259502,15.0537634 243.345794,15.2258065 C243.432087,15.655914 243.604673,15.9139785 243.777259,16.0860215 L243.777259,16.4301075 L240.929595,16.4301075 C240.843302,16.0860215 240.843302,15.827957 240.757009,15.5698925 C240.670717,15.1397849 240.670717,14.7096774 240.670717,14.2795699 L240.670717,12.9032258 C240.670717,11.9569892 240.498131,11.2688172 240.239252,10.9247312 C239.980374,10.5806452 239.462617,10.4086022 238.685981,10.4086022 L236.010903,10.4086022 L236.010903,16.4301075 L233.422118,16.4301075 L233.422118,1.20430108 L239.54891,1.20430108 C240.411838,1.29032258 241.102181,1.46236559 241.533645,1.6344086 Z M235.924611,3.95698925 L235.924611,8.08602151 L238.858567,8.08602151 C239.462617,8.08602151 239.894081,8 240.15296,7.82795699 C240.670717,7.56989247 240.929595,6.96774194 240.929595,6.10752688 C240.929595,5.16129032 240.670717,4.55913978 240.15296,4.21505376 C239.894081,4.04301075 239.462617,3.95698925 238.858567,3.95698925 L235.924611,3.95698925 Z" id="Shape"></path>
                        <polygon id="Path" points="256.030841 1.29032258 256.030841 3.95698925 252.320249 3.95698925 252.320249 16.516129 249.645171 16.516129 249.645171 3.95698925 245.934579 3.95698925 245.934579 1.29032258"></polygon>
                        <path d="M260.604361,11.8709677 C260.690654,12.5591398 260.86324,13.0752688 261.035826,13.4193548 C261.46729,14.0215054 262.157632,14.3655914 263.193146,14.3655914 C263.797196,14.3655914 264.314953,14.2795699 264.660125,14.1075269 C265.350467,13.7634409 265.781931,13.1612903 265.781931,12.3010753 C265.781931,11.7849462 265.609346,11.4408602 265.264174,11.0967742 C264.919003,10.8387097 264.314953,10.5806452 263.538318,10.4086022 L262.243925,10.0645161 C260.949533,9.72043011 260.000312,9.29032258 259.568847,8.86021505 C258.705919,8.17204301 258.274455,7.05376344 258.274455,5.59139785 C258.274455,4.21505376 258.705919,3.09677419 259.482555,2.15053763 C260.345483,1.20430108 261.46729,0.774193548 263.106854,0.774193548 C264.401246,0.774193548 265.523053,1.20430108 266.472274,2.06451613 C267.421495,2.92473118 267.939252,4.12903226 267.939252,5.76344086 L265.43676,5.76344086 C265.350467,4.8172043 265.091589,4.21505376 264.487539,3.78494624 C264.056075,3.52688172 263.538318,3.44086022 262.934268,3.44086022 C262.243925,3.44086022 261.726168,3.61290323 261.294704,3.95698925 C260.86324,4.30107527 260.690654,4.7311828 260.690654,5.33333333 C260.690654,5.84946237 260.86324,6.27956989 261.294704,6.53763441 C261.553583,6.70967742 262.07134,6.96774194 262.934268,7.13978495 L265.091589,7.74193548 C266.04081,8 266.731153,8.34408602 267.24891,8.86021505 C268.025545,9.5483871 268.370717,10.5806452 268.370717,11.9569892 C268.370717,13.3333333 267.939252,14.5376344 267.076324,15.3978495 C266.213396,16.344086 264.919003,16.7741935 263.365732,16.7741935 C261.726168,16.7741935 260.431776,16.344086 259.482555,15.3978495 C258.533333,14.4516129 258.101869,13.2473118 258.101869,11.6989247 L260.604361,11.6989247 L260.604361,11.8709677 Z" id="Path"></path>
                    </g>
                    <path d="M62.734891,46.9677419 L51.1716511,46.9677419 L52.3797508,46.5376344 C53.9330218,45.9354839 56.435514,45.2473118 57.2121495,44.3010753 C57.9024922,43.5268817 58.0750779,42.7526882 58.0750779,41.7204301 L58.0750779,12.1290323 C58.0750779,11.1827957 57.988785,10.4086022 57.471028,9.6344086 C56.6943925,8.68817204 54.0193146,8.08602151 52.4660436,7.56989247 L51.2579439,7.13978495 L61.1816199,7.13978495 C64.1155763,7.13978495 70.9327103,6.4516129 76.9732087,7.22580645 C82.4096573,8 92.6785047,13.0752688 93.7140187,24.516129 C95.2672897,41.5483871 80.1660436,46.3655914 75.6788162,47.1397849 C72.14081,47.827957 65.4099688,46.9677419 62.734891,46.9677419 Z M63.8566978,43.9569892 C64.8922118,44.4731183 73.9529595,45.1612903 77.9224299,43.3548387 C81.7193146,41.7204301 88.7953271,39.2258065 89.2267913,28.0430108 C89.5719626,19.8709677 84.135514,12.0430108 75.4199377,10.0645161 C73.694081,9.72043011 64.9785047,9.37634409 63.4252336,10.3225806 C62.8211838,10.6666667 62.734891,11.3548387 62.734891,12.1290323 L62.734891,41.3763441 C62.6485981,42.4086022 62.9074766,43.4408602 63.8566978,43.9569892 Z" id="Shape"></path>
                    <path d="M108.556386,46.9677419 L96.9931464,46.9677419 L98.2012461,46.5376344 C99.7545171,45.9354839 102.257009,45.2473118 103.033645,44.3010753 C103.723988,43.5268817 103.896573,42.7526882 103.896573,41.7204301 L103.896573,12.1290323 C103.896573,11.1827957 103.81028,10.4086022 103.292523,9.6344086 C102.515888,8.68817204 99.84081,8.08602151 98.2875389,7.56989247 L97.0794393,7.13978495 L107.003115,7.13978495 C109.937072,7.13978495 116.754206,6.4516129 122.794704,7.22580645 C128.231153,8 138.5,13.0752688 139.535514,24.516129 C141.088785,41.5483871 125.987539,46.3655914 121.414019,47.1397849 C117.876012,47.827957 111.231464,46.9677419 108.556386,46.9677419 Z M109.5919,43.9569892 C110.627414,44.4731183 119.688162,45.1612903 123.657632,43.3548387 C127.454517,41.7204301 134.53053,39.2258065 134.961994,28.0430108 C135.307165,19.8709677 129.870717,12.0430108 121.15514,10.0645161 C119.429283,9.72043011 110.713707,9.37634409 109.160436,10.3225806 C108.556386,10.6666667 108.470093,11.3548387 108.470093,12.1290323 L108.470093,41.3763441 C108.470093,42.4086022 108.728972,43.4408602 109.5919,43.9569892 Z" id="Shape"></path>
                    <path d="M218.148287,41.2903226 C218.493458,42.3225806 218.924922,43.0107527 219.442679,44.0430108 C219.960436,45.0752688 222.290343,45.7634409 223.929907,46.4516129 L225.138006,46.9677419 L208.656075,46.9677419 L210.123053,46.4516129 C211.331153,45.9354839 213.574766,45.4193548 213.919938,44.2150538 C214.092523,43.6129032 213.488474,41.8064516 213.057009,40.8602151 L209.346417,30.5376344 L195.625857,30.5376344 L191.742679,40.8602151 C191.311215,41.9784946 190.793458,44.0430108 190.879751,44.4731183 C191.224922,45.4193548 193.123364,45.7634409 194.590343,46.3655914 L196.057321,46.9677419 L180.869782,46.9677419 L182.077882,46.5376344 C183.631153,45.9354839 186.219938,45.2473118 186.737695,44.1290323 C187.255452,43.1827957 187.51433,42.4946237 187.859502,41.3763441 C193.037072,29.6774194 199.336449,12.8172043 200.371963,9.72043011 C200.803427,8.25806452 201.062305,7.39784946 201.407477,5.93548387 L205.118069,5.93548387 C205.46324,7.05376344 205.635826,7.74193548 205.980997,8.86021505 C208.310903,16.0860215 216.595016,38.0215054 218.148287,41.2903226 Z M196.747664,27.6129032 L207.965732,27.6129032 L202.356698,13.0752688 L196.747664,27.6129032 Z" id="Shape"></path>
                    <path d="M235.665732,13.1612903 L235.665732,37.1612903 C235.665732,38.4516129 235.406854,42.6666667 236.269782,44.3870968 C236.787539,45.2473118 238.513396,45.8494624 239.980374,46.3655914 L241.533645,46.8817204 L226.950156,46.8817204 L227.899377,46.4516129 C229.452648,45.7634409 231.437383,45.1612903 231.95514,44.1290323 C232.472897,43.1827957 232.472897,39.5698925 232.472897,37.1612903 L232.472897,5.93548387 L235.665732,5.93548387 C236.52866,6.88172043 237.477882,8.34408602 239.290031,10.2365591 C248.782243,19.9569892 265.091589,37.0752688 267.421495,39.2258065 L267.421495,15.655914 C267.335202,12.9032258 267.594081,9.46236559 267.076324,8.60215054 C266.558567,7.56989247 264.401246,7.05376344 262.934268,6.3655914 L261.985047,5.93548387 L276.482243,5.93548387 L274.928972,6.62365591 C273.461994,7.13978495 272.340187,7.65591398 271.477259,8.51612903 C270.61433,9.37634409 270.786916,15.5698925 270.786916,15.5698925 L270.786916,47.0537634 L268.111838,47.0537634 C258.964798,36.8172043 262.416511,40.688172 258.533333,36.6451613 C249.90405,27.3548387 239.290031,16.6021505 235.665732,13.1612903 Z" id="Path"></path>
                    <g transform="translate(139.794393, 0.000000)">
                        <path d="M15.5327103,25.8064516 L13.8068536,25.8064516 L13.8068536,40.688172 C13.8068536,41.9784946 13.8068536,43.0107527 14.5834891,44.0430108 C15.4464174,45.0752688 18.7255452,45.5913978 20.4514019,46.2795699 L21.8320872,46.8817204 L0.431464174,46.8817204 L1.89844237,46.4516129 C3.62429907,46.0215054 7.1623053,44.9892473 7.76635514,44.2150538 C8.54299065,43.1827957 8.37040498,41.5483871 8.37040498,40.6021505 L8.37040498,6.53763441 C8.37040498,5.41935484 8.28411215,4.55913978 7.68006231,3.61290323 C6.81713396,2.58064516 3.7105919,1.5483871 1.89844237,0.860215054 L0.517757009,0.344086022 L12.0809969,0.344086022 C15.5327103,0.344086022 18.0352025,-2.5313085e-14 21.8320872,0.258064516 C27.5274143,0.602150538 33.9993769,4.8172043 33.9993769,13.2473118 C33.9993769,21.6774194 26.7507788,24.2580645 22.8676012,25.2903226 L21.5732087,25.5483871 L15.5327103,25.8064516 Z M13.8068536,6.10752688 L13.8068536,23.1397849 L16.74081,23.0537634 C23.6442368,22.9677419 29.3395639,18.6666667 28.8218069,12.3010753 C28.3903427,6.79569892 23.9894081,3.2688172 19.847352,3.09677419 C17.8626168,2.92473118 15.1875389,3.1827957 14.4971963,3.61290323 C13.7205607,4.12903226 13.8068536,5.07526882 13.8068536,6.10752688 Z" id="Shape"></path>
                        <path d="M23.6442368,24.9462366 C23.6442368,24.9462366 27.2685358,24.6021505 29.6847352,29.4193548 C31.9283489,34.0645161 35.2074766,45.7634409 45.0448598,52.9032258 C46.6844237,54.1075269 50.0498442,57.0322581 59.2831776,53.9354839 C59.2831776,53.9354839 58.8517134,54.6236559 55.5725857,56.2580645 C46.9433022,60.6451613 41.0753894,56.688172 35.8115265,50.8387097 C32.5323988,47.2258065 28.8218069,41.7204301 26.3193146,35.7849462 C24.0757009,30.4516129 22.8676012,28.6451613 17.5174455,25.2903226 C17.3448598,25.2903226 23.6442368,24.9462366 23.6442368,24.9462366 Z" id="Path"></path>
                    </g>
                    <g>
                        <path d="M32.3598131,24.9462366 C32.3598131,24.9462366 35.9841121,24.6021505 38.4003115,29.4193548 C40.6439252,34.0645161 43.923053,45.7634409 53.7604361,52.9032258 C55.4,54.1075269 58.7654206,57.0322581 67.9987539,53.9354839 C67.9987539,53.9354839 67.5672897,54.6236559 64.288162,56.2580645 C55.6588785,60.6451613 49.7909657,56.688172 44.44081,50.8387097 C41.1616822,47.2258065 37.4510903,41.7204301 34.9485981,35.7849462 C32.7049844,30.4516129 31.4968847,28.6451613 26.146729,25.2903226 C26.0604361,25.2903226 32.3598131,24.9462366 32.3598131,24.9462366 Z" id="Path"></path>
                        <path d="M42.8875389,40.344086 C43.3190031,41.5483871 43.7504673,42.3225806 44.3545171,43.4408602 C44.958567,44.6451613 38.4866044,40.9462366 38.0551402,39.827957 L32.8775701,28.0430108 L17.258567,28.0430108 L12.8576324,39.827957 C12.3398754,41.1182796 11.8221184,43.4408602 11.9084112,43.9569892 C12.3398754,44.9892473 14.4971963,45.4193548 16.1367601,46.1075269 L17.8626168,46.7956989 L0.604049844,46.7956989 L1.9847352,46.2795699 C3.7105919,45.5913978 6.64454829,44.7311828 7.24859813,43.6129032 C7.85264798,42.5806452 8.11152648,41.7204301 8.54299065,40.516129 C14.4109034,27.2688172 21.5732087,8.08602151 22.7813084,4.55913978 C23.2990654,2.92473118 23.5579439,1.89247312 23.9031153,0.258064516 L28.1314642,0.258064516 C28.4766355,1.5483871 28.735514,2.32258065 29.0806854,3.61290323 C31.7557632,11.8709677 41.1616822,36.6451613 42.8875389,40.344086 Z M18.5529595,24.8602151 L31.3242991,24.8602151 L25.0249221,8.34408602 L18.5529595,24.8602151 Z" id="Shape"></path>
                    </g>
                </g>
                <g id="Group" transform="translate(36.000000, 0.000000)">
                    <rect id="Rectangle" fill="#4D1979" x="0" y="0.347222222" width="205.307563" height="124.21875"></rect>
                    <g transform="translate(22.504202, 24.305556)" fill="#FFFFFF">
                        <path d="M149.82605,67.4479167 C151.210924,67.4479167 152.422689,68.5763889 152.422689,70.0520833 C152.422689,71.5277778 151.297479,72.65625 149.82605,72.65625 C148.441176,72.65625 147.229412,71.5277778 147.229412,70.0520833 C147.315966,68.5763889 148.441176,67.4479167 149.82605,67.4479167 Z M149.82605,73.0902778 C151.557143,73.0902778 152.855462,71.7013889 152.855462,70.0520833 C152.855462,68.3159722 151.470588,67.0138889 149.82605,67.0138889 C148.094958,67.0138889 146.796639,68.4027778 146.796639,70.0520833 C146.796639,71.7013889 148.181513,73.0902778 149.82605,73.0902778 Z M150.345378,70.1388889 C150.778151,70.1388889 151.297479,69.8784722 151.297479,69.1840278 C151.297479,68.4895833 150.778151,68.2291667 150.085714,68.2291667 L148.614286,68.2291667 L148.614286,71.7013889 L149.133613,71.7013889 L149.133613,70.1388889 L149.739496,70.1388889 L150.605042,71.7013889 L151.210924,71.7013889 L150.345378,70.1388889 Z M149.99916,68.8368056 C150.431933,68.8368056 150.778151,68.8368056 150.778151,69.2708333 C150.778151,69.7048611 150.172269,69.6180556 149.652941,69.6180556 L149.133613,69.6180556 L149.133613,68.75 L149.99916,68.75 L149.99916,68.8368056 Z" id="Shape"></path>
                        <g id="Path">
                            <path d="M48.5571429,2.08333333 C23.1966387,5.46875 2.7697479,14.4965278 1.9907563,14.84375 L1.55798319,15.0173611 L0.346218487,15.5381944 L0.346218487,16.9270833 L0.346218487,39.1493056 L0.346218487,42.4479167 L3.37563025,41.0590278 L4.41428571,40.5381944 C5.71260504,39.9305556 9.26134454,38.28125 14.5411765,36.2847222 L14.9739496,36.1111111 L16.3588235,35.5902778 L16.3588235,34.1145833 L16.3588235,26.7361111 C17.1378151,26.4756944 17.9168067,26.2152778 18.6092437,25.9548611 L18.6092437,56.5972222 C16.7915966,57.2916667 15.1470588,57.9861111 13.5890756,58.6805556 L13.1563025,58.8541667 L11.9445378,59.375 L11.9445378,60.7638889 L11.9445378,74.3055556 L11.9445378,77.6909722 L14.9739496,76.2152778 L16.012605,75.6944444 C23.5428571,72.0486111 31.3327731,68.9236111 39.1226891,66.40625 L39.6420168,66.2326389 L41.1134454,65.7986111 L41.1134454,64.2361111 L41.1134454,51.6493056 L41.1134454,48.7847222 L38.4302521,49.5659722 L37.4781513,49.8263889 C36.4394958,50.0868056 35.4008403,50.4340278 34.3621849,50.78125 L34.3621849,21.09375 C35.2277311,20.9201389 36.0067227,20.6597222 36.7857143,20.4861111 L36.7857143,26.4756944 L36.7857143,29.0798611 L39.3823529,28.4722222 L40.2478992,28.2986111 C43.5369748,27.5173611 46.5663866,26.9097222 49.4226891,26.4756944 L50.0285714,26.3888889 L51.7596639,26.1284722 L51.7596639,24.3055556 L51.7596639,4.07986111 L51.7596639,1.64930556 L49.4226891,1.99652778 L48.5571429,2.08333333 Z"></path>
                            <path d="M89.6705882,1.47569444 L89.0647059,0.868055556 L88.2857143,0.868055556 L88.0260504,0.868055556 C85.0831933,0.607638889 81.8806723,0.434027778 78.3319328,0.434027778 C73.3983193,0.434027778 69.589916,0.78125 68.8109244,0.78125 L68.5512605,0.78125 L67.7722689,0.868055556 L67.1663866,1.47569444 L55.4815126,13.5416667 L54.8756303,14.1493056 L54.8756303,15.0173611 L54.8756303,48.2638889 L54.8756303,49.1319444 L55.4815126,49.7395833 L66.4739496,61.4583333 L67.1663866,62.2395833 L68.205042,62.1527778 L68.5512605,62.1527778 C68.9840336,62.1527778 72.9655462,61.8055556 78.1588235,61.8055556 C81.6210084,61.8055556 84.7369748,61.9791667 87.5067227,62.2395833 L87.8529412,62.2395833 L88.8915966,62.4131944 L89.5840336,61.6319444 L101.009244,49.8263889 L101.615126,49.21875 L101.615126,48.3506944 L101.615126,38.8888889 L101.615126,36.9791667 L99.7109244,36.8055556 L88.112605,35.5034722 L85.7756303,35.2430556 L85.7756303,37.5868056 L85.7756303,42.2743056 C84.910084,43.1423611 83.4386555,44.6180556 82.5731092,45.4861111 C81.1882353,45.3993056 79.7168067,45.3993056 78.3319328,45.3993056 C76.4277311,45.3993056 74.6966387,45.4861111 73.3983193,45.4861111 C72.7058824,44.7048611 71.5806723,43.5763889 70.8882353,42.8819444 L70.8882353,20.8333333 C71.2344538,20.4861111 71.7537815,19.9652778 72.2731092,19.4444444 C73.1386555,18.4895833 74.1773109,17.4479167 74.7831933,16.8402778 C75.994958,16.8402778 77.2067227,16.7534722 78.3319328,16.7534722 C79.4571429,16.7534722 80.6689076,16.7534722 81.707563,16.8402778 C82.7462185,17.8819444 84.7369748,19.8784722 85.7756303,20.9201389 L85.7756303,25 L85.7756303,26.9097222 L87.6798319,27.0833333 L99.2781513,28.2118056 L101.615126,28.4722222 L101.615126,26.1284722 L101.615126,14.9305556 L101.615126,14.0625 L101.009244,13.4548611 L89.6705882,1.47569444 Z"></path>
                            <path d="M158.827731,17.1875 L158.394958,17.0138889 C152.595798,14.1493056 145.757983,11.4583333 137.968067,9.11458333 L137.015966,8.85416667 L134.332773,8.07291667 L134.332773,10.8506944 L134.332773,23.4375 L134.332773,24.9131944 L135.804202,25.4340278 C136.669748,25.6944444 137.708403,26.0416667 138.487395,26.3020833 L138.487395,53.2118056 C137.708403,53.90625 136.323529,55.0347222 135.457983,55.8159722 C133.640336,55.1215278 130.264706,53.90625 128.793277,53.2986111 C128.014286,51.9965278 126.110084,48.8715278 125.417647,47.65625 L125.417647,22.3958333 C126.629412,22.7430556 127.927731,23.0034722 128.014286,23.0902778 L130.610924,23.7847222 L130.610924,21.09375 L130.610924,8.68055556 L130.610924,6.94444444 L128.966387,6.59722222 L128.447059,6.51041667 C118.839496,4.07986111 110.789916,2.86458333 107.760504,2.43055556 L106.981513,2.34375 L104.557983,1.99652778 L104.557983,4.34027778 L104.557983,16.5798611 L104.557983,18.4027778 L106.37563,18.6631944 L106.981513,18.75 L106.981513,18.75 L106.981513,18.75 C107.327731,18.75 108.020168,18.9236111 109.058824,19.0104167 L109.058824,51.0416667 L109.058824,51.6493056 L109.318487,52.1701389 L117.97395,66.5798611 L118.406723,67.2743056 L119.185714,67.5347222 L119.445378,67.6215278 C120.830252,68.0555556 128.27395,70.2256944 135.977311,74.0451389 L136.410084,74.3055556 L137.621849,74.9131944 L138.660504,73.9583333 L153.37479,61.1979167 L154.067227,60.5902778 L154.067227,59.6354167 L154.067227,32.8125 C154.586555,33.0729167 155.105882,33.3333333 155.711765,33.59375 L155.711765,33.59375 L155.711765,33.59375 L156.75042,34.1145833 L159.779832,35.6770833 L159.779832,32.2916667 L159.779832,19.0972222 L159.779832,17.7951389 L158.827731,17.1875 Z"></path>
                        </g>
                    </g>
                </g>
            </g>
        </g>
    </g>
</svg>